<svg width="616" height="539" viewBox="0 0 616 539" fill="none" xmlns="http://www.w3.org/2000/svg">
<path d="M353.458 481.162V492.266H453.144V481.162H353.458Z" fill="#A15842"/>
<path d="M469.561 532.402L443.634 378.068H362.968L337.041 532.402C336.924 533.133 336.967 533.881 337.166 534.594C337.366 535.307 337.718 535.968 338.198 536.531C338.678 537.095 339.274 537.548 339.946 537.859C340.618 538.17 341.349 538.332 342.089 538.333C343.258 538.336 344.392 537.937 345.302 537.204C346.213 536.471 346.844 535.449 347.092 534.307L381.039 378.035H425.557L459.504 534.307C459.754 535.449 460.387 536.471 461.298 537.203C462.209 537.936 463.344 538.335 464.513 538.333C465.253 538.332 465.985 538.17 466.656 537.859C467.328 537.548 467.925 537.095 468.405 536.531C468.884 535.968 469.236 535.307 469.436 534.594C469.636 533.881 469.678 533.133 469.561 532.402Z" fill="#A15842"/>
<path d="M436.042 481.162V492.266H535.729V481.162H436.042Z" fill="#CA7358"/>
<path d="M552.146 532.402L526.219 378.068H445.552L419.619 532.402C419.503 533.133 419.547 533.881 419.747 534.594C419.948 535.307 420.3 535.968 420.78 536.532C421.261 537.095 421.858 537.548 422.53 537.859C423.202 538.17 423.933 538.332 424.674 538.333C425.842 538.336 426.977 537.937 427.887 537.204C428.797 536.471 429.429 535.449 429.676 534.306L463.623 378.035H508.115L542.062 534.306C542.312 535.449 542.945 536.471 543.856 537.203C544.767 537.936 545.902 538.335 547.071 538.333C547.814 538.336 548.548 538.177 549.223 537.868C549.898 537.558 550.498 537.106 550.98 536.541C551.463 535.977 551.817 535.315 552.019 534.6C552.22 533.885 552.263 533.135 552.146 532.402Z" fill="#CA7358"/>
<path d="M470.668 353.189L480.554 314.516H415.012C402.165 314.516 389.683 318.79 379.532 326.665C369.381 334.54 362.14 345.569 358.947 358.013L352.252 384.243H430.678C439.845 384.243 448.753 381.191 455.994 375.568C463.235 369.945 468.398 362.071 470.668 353.189Z" fill="#FFB7D5"/>
<path d="M508.662 384.243H352.252L354.888 373.744H423.547L449.73 271.343C453.297 257.393 461.406 245.028 472.779 236.198C484.151 227.367 498.139 222.574 512.537 222.573C547.769 222.573 573.551 255.783 564.825 289.914L548.646 353.182C546.377 362.065 541.216 369.939 533.976 375.563C526.736 381.187 517.83 384.241 508.662 384.243Z" fill="#FFB7D5"/>
<path d="M356.509 372.723H439.719" stroke="#A15842" stroke-width="4" stroke-linecap="round" stroke-linejoin="round"/>
<path d="M423.85 372.341L438.428 315.327" stroke="#A15842" stroke-width="4" stroke-linecap="round" stroke-linejoin="round"/>
<path d="M309.137 89.8558C304.768 78.7378 296.846 65.8865 292.542 69.5705C291.501 70.4668 290.875 71.9892 290.565 73.9465C289.728 79.4627 291.488 88.4454 293.755 96.6176L286.954 99.5898C286.909 99.7953 286.852 99.9978 286.782 100.196C285.537 103.874 281.444 104.249 281.444 104.249C281.444 104.249 286.249 107.228 284.113 112.112C281.978 116.995 275.038 115.407 275.038 115.407C279.507 120.178 278.894 123.553 276.04 125.839C275.457 126.259 274.776 126.522 274.063 126.604C274.254 132.614 274.636 139.495 275.335 146.718L321.02 132.219C317.25 116.6 312.564 98.5749 309.137 89.8558Z" fill="#A15842"/>
<path d="M292.76 97.929C293.195 99.3064 293.591 100.479 293.768 100.921C293.768 100.921 290.084 109.528 291.923 118.748" stroke="#30242A" stroke-width="4" stroke-linecap="round" stroke-linejoin="round"/>
<path d="M276.04 125.866C278.894 123.579 279.507 120.205 275.038 115.433C275.038 115.433 281.978 117.002 284.113 112.138C286.249 107.274 281.444 104.276 281.444 104.276C281.444 104.276 286.545 103.827 287.092 98.8385" stroke="#30242A" stroke-width="8" stroke-linecap="round" stroke-linejoin="round"/>
<path d="M270.135 77.9404C272.811 78.7444 284.746 78.8762 286.413 86.6265C287.204 90.2776 282.321 91.7275 282.321 91.7275C282.321 91.7275 287.593 94.3044 287.092 98.8188C287.062 99.0806 287.015 99.3403 286.954 99.5965L293.768 96.6176C291.501 88.4455 289.741 79.4825 290.578 73.9466L282.492 56.1525L273.832 37.0864L255.379 45.476L264.039 64.5421L266.886 70.803L270.135 77.9404Z" fill="#EAA58B"/>
<path d="M282.321 91.7277C282.321 91.7277 287.204 90.2778 286.414 86.6267C284.746 78.8763 272.811 78.7182 270.135 77.9405L266.906 70.8031C266.768 70.8031 260.81 71.7389 258.404 75.4625C254.635 81.3016 259.228 85.4865 259.228 85.4865C259.228 85.4865 249.936 88.6631 254.661 97.4284C254.661 97.4284 249.329 104.098 255.979 109.429C255.979 109.429 250.944 113.924 257.515 119.974C262.952 124.996 270.201 127.27 274.083 126.611C274.796 126.529 275.477 126.265 276.06 125.846C278.914 123.559 279.527 120.185 275.058 115.414C275.058 115.414 281.998 116.982 284.133 112.118C286.269 107.255 281.464 104.256 281.464 104.256C281.464 104.256 285.557 103.88 286.802 100.203C286.872 100.005 286.929 99.8021 286.974 99.5966C287.035 99.3404 287.082 99.0807 287.112 98.8189C287.593 94.3177 282.321 91.7277 282.321 91.7277Z" fill="#A15842"/>
<path d="M282.644 91.6418C275.744 90.9827 265.983 89.3285 258.655 85.4006" stroke="#30242A" stroke-width="4" stroke-linecap="round" stroke-linejoin="round"/>
<path d="M283.382 105.653C276.607 105.126 265.285 103.102 255.181 98.4034" stroke="#30242A" stroke-width="4" stroke-linecap="round" stroke-linejoin="round"/>
<path d="M278.175 117.265C273.984 116.349 263.103 113.779 255.887 110.464" stroke="#30242A" stroke-width="4" stroke-linecap="round" stroke-linejoin="round"/>
<path d="M502.75 193.734C502.766 192.804 502.735 191.873 502.658 190.946L501.617 185.094C497.438 170.338 482.893 159.128 477.548 141.485L459.313 141.663V141.32L435.719 151.937L426.558 132.792H426.394L417.932 151.937L408.198 141.59V141.663C408.198 141.663 378.613 142.717 327.597 160.538C327.597 160.538 324.75 147.522 321.059 132.272L275.374 146.771C278.07 174.549 285.537 207.31 305.466 214.652C328.823 223.252 385.375 206.658 385.375 206.658L393.363 269.965H498.466V258.267C498.466 258.267 507.074 253.983 507.074 244.131C507.054 226.31 502.131 223.852 502.75 193.734Z" fill="#3EC1F3"/>
<path d="M426.387 132.792H409.337L408.191 141.59L417.925 151.937L426.387 132.792Z" fill="#F5EBDD"/>
<path d="M426.591 132.792L435.752 151.937L459.346 141.32C459.438 140.345 459.734 137.366 460.13 133.155V132.792H426.591Z" fill="#F5EBDD"/>
<path d="M381.665 186.972L383.991 205.906" stroke="#4756DF" stroke-width="4" stroke-linecap="round" stroke-linejoin="round"/>
<path d="M426.229 172.223C429.115 172.223 431.455 169.883 431.455 166.996C431.455 164.11 429.115 161.77 426.229 161.77C423.343 161.77 421.003 164.11 421.003 166.996C421.003 169.883 423.343 172.223 426.229 172.223Z" fill="#30242A"/>
<path d="M289.774 163.616C292.661 163.616 295.001 161.276 295.001 158.39C295.001 155.503 292.661 153.163 289.774 153.163C286.888 153.163 284.548 155.503 284.548 158.39C284.548 161.276 286.888 163.616 289.774 163.616Z" fill="#30242A"/>
<path d="M328.895 160.854L331.261 172.216" stroke="#4756DF" stroke-width="4" stroke-linecap="round" stroke-linejoin="round"/>
<path d="M426.394 132.792H426.598L426.539 132.667H460.15V132.792H460.196C460.473 129.82 460.809 126.275 461.165 122.446C455.392 120.508 440.965 114.722 435.904 104.032C444.425 101.191 454.357 89.1178 447.266 79.1729C437.855 65.992 421.701 83.4369 421.701 83.4369C421.701 83.4369 411.756 77.0442 406.787 63.5536C404.659 64.2588 398.266 64.9705 393.297 63.5536C393.297 63.5536 391.161 69.2345 389.744 79.1729C389.547 80.5437 389.327 81.8617 389.085 83.1271C389.085 83.1271 382.647 82.7383 381.941 85.5787C381.058 89.0914 386.693 92.8282 386.693 92.8282C384.485 100.737 382.653 106.859 385.487 113.95C387.991 120.205 393.303 127.441 410.346 125.312L409.39 132.647H426.473L426.394 132.792Z" fill="#A15842"/>
<path d="M406.761 63.5533C411.73 77.0439 421.675 83.4366 421.675 83.4366C421.675 83.4366 437.828 65.9984 447.239 79.1726C454.337 89.1175 444.399 101.191 435.877 104.032C440.939 114.721 455.365 120.508 461.138 122.445C462.384 108.902 463.886 91.7537 464.282 83.4366C464.941 69.8801 463.623 49.9969 441.558 40.1178C420.963 30.8913 401.792 45.087 401.792 45.087C401.792 45.087 384.281 40.0453 383.338 51.4797C382.627 60.0011 393.283 63.5533 393.283 63.5533C398.239 64.9703 404.645 64.2585 406.761 63.5533Z" fill="#EAA58B"/>
<path d="M410.781 126.611C414.169 126.024 418.914 124.778 422.736 122.155" stroke="#30242A" stroke-width="4" stroke-miterlimit="10" stroke-linecap="round"/>
<path d="M392.447 99.3923C393.626 100.124 398.022 100.71 399.808 97.3097" stroke="#30242A" stroke-width="4" stroke-miterlimit="10" stroke-linecap="round"/>
<path d="M401.08 82.7448C402.266 82.7448 403.228 81.7829 403.228 80.5963C403.228 79.4098 402.266 78.4479 401.08 78.4479C399.893 78.4479 398.931 79.4098 398.931 80.5963C398.931 81.7829 399.893 82.7448 401.08 82.7448Z" fill="#30242A"/>
<path d="M438.006 87.6942L430.196 92.6634" stroke="#30242A" stroke-width="4" stroke-miterlimit="10" stroke-linecap="round"/>
<path d="M393.343 269.945C393.343 269.945 340.481 289.618 320.848 300.064C286.723 318.194 282.565 327.882 261.535 391.73C254.509 412.898 249.771 430.152 245.296 443.609L302.125 469.582L302.197 469.437L311.424 473.754C311.424 473.754 326.312 454.365 328.697 432.419C331.782 404.08 329.936 384.922 342.887 373.817L492.792 269.926L393.343 269.945Z" fill="#30242A"/>
<path d="M236.129 465.654L248.525 471.434C257.093 475.441 256.434 481.234 255.419 483.468C254.483 485.229 253.454 486.939 252.334 488.589L283.243 503.2C290.17 492.364 296.475 481.142 302.125 469.589L245.296 443.609C242.304 452.658 239.444 459.98 236.129 465.654Z" fill="#A15842"/>
<path d="M248.525 471.434L236.128 465.654C232.833 471.263 229.142 475.257 224.417 477.675C220.878 479.425 216.996 480.374 213.049 480.456C212.014 480.496 211.019 480.562 210.037 480.628C212.673 485.346 213.872 492.576 213.872 492.576C221.201 494.553 229.986 492.088 236.28 489.564C238.652 488.609 240.662 487.64 242.093 486.928C243.087 486.415 244.186 486.138 245.305 486.117C246.423 486.097 247.532 486.334 248.545 486.81L252.367 488.615C253.486 486.965 254.516 485.256 255.451 483.495C256.453 481.234 257.125 475.441 248.525 471.434Z" fill="#FF7235"/>
<path d="M252.334 488.589L248.512 486.783C247.499 486.307 246.39 486.07 245.272 486.091C244.153 486.112 243.054 486.389 242.06 486.902C240.629 487.64 238.619 488.609 236.247 489.538C229.986 492.062 221.201 494.533 213.839 492.55C213.839 492.55 212.64 485.3 210.004 480.601C209.345 480.647 208.758 480.7 208.152 480.759C196.23 481.9 189.139 485.129 184.921 489.933L265.647 527.565C269.001 523.498 273.746 517.376 279.269 509.223C280.587 507.319 281.905 505.322 283.223 503.2L252.334 488.589Z" fill="#30242A"/>
<path d="M181.006 496.669L260.368 533.575C260.368 533.575 262.345 531.545 265.64 527.532L184.921 489.933C183.198 491.908 181.869 494.194 181.006 496.669Z" fill="#FF7235"/>
<path d="M455.128 269.945C455.128 269.945 390.417 287.674 359.027 306.852C326.437 326.735 326.075 342.947 330.833 396.165" stroke="black" stroke-width="4" stroke-linecap="round" stroke-linejoin="round"/>
<path d="M439.555 373.883L437.103 383.538" stroke="#A15842" stroke-width="4" stroke-linecap="round" stroke-linejoin="round"/>
<path d="M558.518 313.198H517.335" stroke="#A15842" stroke-width="4" stroke-linecap="round" stroke-linejoin="round"/>
<path d="M74.0503 481.162V492.266H173.737V481.162H74.0503Z" fill="#A15842"/>
<path d="M57.6339 532.402L83.5605 378.068H164.234L190.16 532.402C190.278 533.133 190.235 533.882 190.035 534.595C189.835 535.309 189.482 535.97 189.002 536.534C188.521 537.098 187.924 537.551 187.251 537.861C186.579 538.172 185.847 538.333 185.106 538.333C183.938 538.333 182.805 537.934 181.895 537.201C180.985 536.469 180.353 535.448 180.103 534.307L146.156 378.068H101.638L67.6908 534.339C67.4413 535.48 66.8092 536.502 65.8994 537.234C64.9895 537.967 63.8567 538.366 62.6887 538.366C61.9445 538.367 61.2091 538.205 60.5338 537.893C59.8584 537.58 59.2593 537.124 58.7781 536.556C58.297 535.989 57.9454 535.323 57.7477 534.605C57.5501 533.888 57.5113 533.136 57.6339 532.402Z" fill="#A15842"/>
<path d="M-8.534 481.162V492.266H91.1526V481.162H-8.534Z" fill="#CA7358"/>
<path d="M-24.9509 532.402L0.975824 378.068H81.6491L107.576 532.402C107.693 533.133 107.65 533.882 107.45 534.595C107.25 535.309 106.898 535.97 106.417 536.534C105.936 537.098 105.339 537.551 104.667 537.861C103.994 538.172 103.262 538.333 102.521 538.333C101.353 538.333 100.22 537.934 99.3102 537.201C98.4004 536.469 97.7683 535.448 97.5188 534.307L63.5715 378.068H19.0533L-14.8939 534.339C-15.1434 535.48 -15.7755 536.502 -16.6853 537.234C-17.5951 537.967 -18.728 538.366 -19.896 538.366C-20.6402 538.367 -21.3756 538.205 -22.0509 537.893C-22.7263 537.58 -23.3254 537.124 -23.8065 536.556C-24.2877 535.989 -24.6393 535.323 -24.837 534.605C-25.0346 533.888 -25.0734 533.136 -24.9509 532.402Z" fill="#CA7358"/>
<path d="M56.533 353.189L46.6473 314.516H112.189C125.037 314.515 137.519 318.788 147.67 326.664C157.821 334.539 165.063 345.568 168.254 358.013L174.949 384.21H96.5236C87.3597 384.213 78.4555 381.166 71.2147 375.549C63.974 369.933 58.8086 362.066 56.533 353.189Z" fill="#3EC1F3"/>
<path d="M18.5328 384.243H174.943L172.307 373.744H103.648L77.4577 271.343C73.8907 257.393 65.7817 245.028 54.4095 236.198C43.0373 227.367 29.0491 222.574 14.6511 222.573C-20.5813 222.573 -46.363 255.783 -37.6373 289.914L-21.4512 353.182C-19.1844 362.066 -14.0235 369.942 -6.78313 375.566C0.457207 381.191 9.36456 384.243 18.5328 384.243Z" fill="#3EC1F3"/>
<path d="M170.686 372.723H87.475" stroke="#4756DF" stroke-width="4" stroke-miterlimit="10" stroke-linecap="round"/>
<path d="M103.351 372.341L88.7667 315.327" stroke="#4756DF" stroke-width="4" stroke-miterlimit="10" stroke-linecap="round"/>
<path d="M87.9629 375.214L90.0916 383.538" stroke="#4756DF" stroke-width="4" stroke-linecap="round" stroke-linejoin="round"/>
<path d="M-31.3234 313.198H9.86005" stroke="#4756DF" stroke-width="4" stroke-linecap="round" stroke-linejoin="round"/>
<path d="M76.1001 516.262L75.2697 518.173L-149.496 520.935C-151.27 520.935 -153.026 521.284 -154.664 521.962C-156.302 522.641 -157.791 523.636 -159.045 524.89C-160.299 526.144 -161.293 527.632 -161.972 529.271C-162.651 530.909 -163 532.665 -163 534.438V539.005H66.2672H115.438C122.193 532.857 92.0753 521.791 76.1001 516.262Z" fill="#EAA58B"/>
<path d="M75.6257 487.501C71.164 493.11 55.7885 498.158 50.2855 484.938C39.1609 490.79 12.9838 484.938 15.297 458.873C-11.7236 464.211 -38.6125 480.951 -40.0097 481.827C-32.1935 495.746 -23.5337 511.484 -21.629 516.288C-18.2943 524.625 -18.4788 536.785 -26.3741 539.025H74.8678C80.3971 520.46 81.445 502.264 75.6257 487.501Z" fill="#EAA58B"/>
<path d="M50.2857 484.938C55.7887 498.158 71.1641 493.11 75.6258 487.501C71.0125 475.85 62.1814 466.313 47.8275 460.355C38.278 456.401 26.7843 456.599 15.2972 458.873C12.9839 484.938 39.1611 490.79 50.2857 484.938Z" fill="#30242A"/>
<path d="M-0.118164 538.366V533.496" stroke="#A15842" stroke-width="4" stroke-linecap="round" stroke-linejoin="round"/>
<path d="M6.03064 538.366V533.496" stroke="#A15842" stroke-width="4" stroke-linecap="round" stroke-linejoin="round"/>
<path d="M-8.72498 538.366V534.458C-8.72498 532.685 -8.37564 530.929 -7.69693 529.291C-7.01823 527.653 -6.02343 526.165 -4.7694 524.912C-3.51538 523.658 -2.02668 522.664 -0.38837 521.986C1.24994 521.309 3.00576 520.96 4.77879 520.961H27.1862" stroke="#A15842" stroke-width="4" stroke-linecap="round" stroke-linejoin="round"/>
<path d="M-0.730622 487.396C-1.96303 493.545 0.495189 511.985 11.5605 520.585" stroke="#A15842" stroke-width="4" stroke-linecap="round" stroke-linejoin="round"/>
<path d="M80.3971 518.41C79.6681 525.105 78.3448 531.722 76.4428 538.182" stroke="#A15842" stroke-width="4" stroke-linecap="round" stroke-linejoin="round"/>
<path d="M426.229 172.223C429.115 172.223 431.455 169.883 431.455 166.996C431.455 164.11 429.115 161.77 426.229 161.77C423.343 161.77 421.003 164.11 421.003 166.996C421.003 169.883 423.343 172.223 426.229 172.223Z" fill="#30242A"/>
<path d="M501.617 185.094L502.658 190.946C502.506 188.966 502.157 187.005 501.617 185.094Z" fill="#A15842"/>
<path d="M460.13 133.155L460.17 132.792H460.123L460.13 133.155Z" fill="#3EC1F3"/>
<path d="M409.359 132.667H409.252L409.239 132.793H409.339L409.359 132.667Z" fill="#F5EBDD"/>
<path d="M426.387 132.792L426.44 132.667H409.358L409.338 132.792H426.387Z" fill="#F5EBDD"/>
<path d="M409.239 132.792L408.092 141.485L408.191 141.59L409.338 132.792H409.239Z" fill="#F5EBDD"/>
<path d="M460.117 132.667H426.532L426.592 132.792H460.124L460.117 132.667Z" fill="#F5EBDD"/>
<path d="M60.6127 60.8382C77.2101 60.8382 90.665 47.3833 90.665 30.7859C90.665 14.1885 77.2101 0.733643 60.6127 0.733643C44.0153 0.733643 30.5604 14.1885 30.5604 30.7859C30.5604 47.3833 44.0153 60.8382 60.6127 60.8382Z" fill="#30242A"/>
<path d="M81.3659 50.8208C79.5272 51.6644 94.9619 15.0415 102.831 20.7619C110.245 26.1595 90.665 46.5305 81.3659 50.8208Z" fill="#3EC1F3"/>
<path d="M80.5091 53.0614C78.8285 55.0715 39.464 41.3042 44.9209 33.3561C50.1405 25.7112 82.1896 51.0514 80.5091 53.0614Z" fill="#3EC1F3"/>
<path d="M134.808 71.864C129.094 72.8262 120.724 70.8623 120.724 70.8623C109.27 83.74 97.1039 86.6002 97.1039 86.6002C89.235 78.0327 74.9206 78.0327 72.7787 90.1788C70.3996 103.643 87.0865 107.353 87.0865 107.353C87.0865 107.353 89.4524 124.185 83.0136 132.773C82.1107 133.972 81.2804 135.027 80.45 135.956H112.367L111.418 130.255C111.418 130.255 121.436 133.834 130.023 128.825C138.61 123.816 140.759 114.511 137.892 100.196C136.198 91.721 136.258 81.2356 134.808 71.864Z" fill="#EAA58B"/>
<path d="M124.131 253.963C109.995 261.958 102.614 277.32 102.614 277.32H151.785L137.16 247.993C131.335 250.51 125.871 252.962 124.131 253.963Z" fill="#FF7235"/>
<path d="M55.3536 144.088C33.7634 146.487 25.8022 154.145 10.0841 173.007C6.20232 177.666 0.198448 185.601 -3.55809 190.557L-3.43944 190.656C-3.43944 190.656 -30.7831 224.564 -29.5243 250.345L8.8253 261.055L35.0024 226.943L42.3837 249.686C42.3837 249.686 25.789 259.519 16.569 277.366H102.613C102.613 277.366 109.995 262.004 124.131 254.01C125.884 253.008 131.334 250.57 137.16 248.039L135.183 244.085L141.319 225.104L154.869 240.447C154.869 240.447 145.642 244.315 137.167 247.993L151.791 277.32H203.427C232.313 258.267 210.182 223.852 200.969 211.554C194.622 203.099 165.315 160.538 145.036 149.479C131.512 142.105 113.573 143.133 113.573 143.133L112.374 135.956H80.4499C76.0739 140.846 71.5858 142.282 55.3536 144.088Z" fill="#FF7235"/>
<path d="M154.829 239.076L165.927 234.911" stroke="#A15842" stroke-width="4" stroke-miterlimit="10" stroke-linecap="round"/>
<path d="M54.6419 244.579C54.8133 232.505 56.8036 201.919 71.8825 186.346C88.5166 169.211 125.97 172.829 137.648 188.191C149.326 203.554 141.339 225.098 141.339 225.098L135.809 244.15L151.785 277.34H8.56177L36.8346 251.525L54.6419 244.579Z" fill="#FFB7D5"/>
<path d="M54.6747 244.131H135.763" stroke="#F5EBDD" stroke-width="4" stroke-miterlimit="10" stroke-linecap="round"/>
<path d="M89.7095 218.316H121.054" stroke="#F5EBDD" stroke-width="4" stroke-miterlimit="10" stroke-linecap="round"/>
<path d="M147.487 243.518L163.463 280.424H132.731C126.589 280.424 118.595 280.424 119.215 277.346C114.292 281.037 106.304 280.424 106.917 277.346C98.9293 281.037 96.4711 278.579 95.8581 277.346C95.2452 276.114 103.233 265.668 121.053 255.783C131.407 250.102 147.487 243.518 147.487 243.518Z" fill="#EAA58B"/>
<path d="M103.233 279.778C103.233 279.778 112.459 270.552 132.731 259.5" stroke="#A15842" stroke-width="4" stroke-miterlimit="10" stroke-linecap="round"/>
<path d="M138.267 266.261C127.801 272.813 117.743 279.997 108.149 287.772" stroke="#A15842" stroke-width="4" stroke-miterlimit="10" stroke-linecap="round"/>
<path d="M144.41 273.636C127.848 282.243 109.395 293.921 109.395 293.921" stroke="#A15842" stroke-width="4" stroke-miterlimit="10" stroke-linecap="round"/>
<path d="M54.8024 143.017L70.9391 137.042C70.9772 137.027 71.0178 137.021 71.0584 137.022C71.0991 137.024 71.139 137.034 71.176 137.051C71.213 137.068 71.2462 137.092 71.2739 137.121C71.3015 137.151 71.323 137.186 71.3372 137.224L90.4264 188.774C91.2477 190.992 91.1542 193.445 90.1668 195.594C89.1793 197.743 87.3787 199.411 85.161 200.233C82.9433 201.054 80.4901 200.96 78.3413 199.973C76.1924 198.985 74.5238 197.185 73.7026 194.967L54.6133 143.417C54.599 143.379 54.5925 143.338 54.5943 143.296C54.5961 143.255 54.6061 143.215 54.6237 143.177C54.6413 143.14 54.6662 143.107 54.6969 143.079C54.7276 143.052 54.7634 143.031 54.8024 143.017Z" fill="#A15842"/>
<path d="M125.719 202.4C126.885 202.534 128.065 202.437 129.193 202.114C130.321 201.791 131.374 201.249 132.292 200.519C133.211 199.789 133.976 198.885 134.544 197.858C135.113 196.832 135.473 195.704 135.605 194.538L140.93 147.548C135.323 145.368 129.433 143.998 123.439 143.482L117.863 192.515C117.729 193.68 117.826 194.86 118.149 195.987C118.471 197.115 119.013 198.168 119.742 199.086C120.472 200.004 121.375 200.769 122.401 201.338C123.426 201.907 124.554 202.268 125.719 202.4Z" fill="#A15842"/>
<path d="M81.8932 196.416C84.7795 196.416 87.1194 194.076 87.1194 191.19C87.1194 188.304 84.7795 185.964 81.8932 185.964C79.0068 185.964 76.667 188.304 76.667 191.19C76.667 194.076 79.0068 196.416 81.8932 196.416Z" fill="#30242A"/>
<path d="M126.892 198.037C129.779 198.037 132.118 195.698 132.118 192.811C132.118 189.925 129.779 187.585 126.892 187.585C124.006 187.585 121.666 189.925 121.666 192.811C121.666 195.698 124.006 198.037 126.892 198.037Z" fill="#30242A"/>
<path d="M26.2635 145.281L57.8645 135.956H80.4499C81.2803 135.026 82.1106 133.979 83.0135 132.773C89.4523 124.205 87.0864 107.353 87.0864 107.353C87.0864 107.353 70.3995 103.643 72.7786 90.1787C74.9205 78.0194 89.2546 78.0194 97.1038 86.6001C97.1038 86.6001 109.27 83.7399 120.724 70.8622C120.724 70.8622 129.094 72.8393 134.808 71.8639C133.806 65.4119 132.092 59.4937 128.593 55.1177C120.025 44.3819 96.3921 37.2313 77.7873 50.8273C59.1826 64.4234 60.6127 86.6001 61.3113 95.1874C61.3113 95.1874 41.2765 88.7486 26.9687 103.755C22.8276 108.052 19.8114 113.305 18.1881 119.048C16.5647 124.79 16.3844 130.845 17.663 136.674C17.663 136.674 -8.69862 135.929 -13.8194 160.287C-16.4555 172.763 -12.297 181.469 -7.03125 187.242L-3.73605 180.533L26.2635 145.281Z" fill="#30242A"/>
<path d="M55.3533 144.088C71.5921 142.282 76.0802 140.846 80.4562 135.956H57.8643L26.2633 145.281L-3.74947 180.553L-7.04468 187.262C-5.97183 188.44 -4.81789 189.541 -3.59131 190.557C0.138865 185.601 6.1691 177.666 10.0509 173.007C25.7953 154.145 33.7566 146.487 55.3533 144.088Z" fill="#30242A"/>
<path d="M110.904 131.58C107.94 130.4 105.049 129.046 102.244 127.527" stroke="#A15842" stroke-width="4" stroke-linecap="round" stroke-linejoin="round"/>
<path d="M16.5358 137.485C17.5732 141.425 18.9765 145.26 20.7273 148.939" stroke="black" stroke-width="4" stroke-linecap="round" stroke-linejoin="round"/>
<path d="M59.9801 95.8069L62.0429 106.642" stroke="black" stroke-width="4" stroke-linecap="round" stroke-linejoin="round"/>
<path d="M36.0104 227.556L50.3709 207.251" stroke="#A15842" stroke-width="4" stroke-miterlimit="10" stroke-linecap="round"/>
<path d="M87.0866 115.585C91.2359 115.585 94.5996 112.221 94.5996 108.072C94.5996 103.922 91.2359 100.559 87.0866 100.559C82.9372 100.559 79.5735 103.922 79.5735 108.072C79.5735 112.221 82.9372 115.585 87.0866 115.585Z" fill="#F5EBDD"/>
<path d="M88.5164 95.1874L82.796 91.6154" stroke="#A15842" stroke-width="4" stroke-linecap="round" stroke-linejoin="round"/>
<path d="M125.126 111.986C123.94 112.725 119.505 113.304 117.712 109.884" stroke="#A15842" stroke-width="4" stroke-linecap="round" stroke-linejoin="round"/>
<path d="M113.468 95.8927C114.654 95.8927 115.616 94.9308 115.616 93.7442C115.616 92.5576 114.654 91.5957 113.468 91.5957C112.281 91.5957 111.319 92.5576 111.319 93.7442C111.319 94.9308 112.281 95.8927 113.468 95.8927Z" fill="#30242A"/>
<path d="M130.023 93.0456C131.209 93.0456 132.171 92.0837 132.171 90.8971C132.171 89.7106 131.209 88.7487 130.023 88.7487C128.836 88.7487 127.874 89.7106 127.874 90.8971C127.874 92.0837 128.836 93.0456 130.023 93.0456Z" fill="#30242A"/>
<path d="M124.296 96.624C124.296 96.624 126.273 101.514 125.765 102.489C125.429 103.112 124.919 103.623 124.296 103.959" stroke="#A15842" stroke-width="4" stroke-linecap="round" stroke-linejoin="round"/>
<path d="M235.094 531.782H223.323C224.146 534.106 224.492 536.572 224.338 539.032H274.023C274.906 529.285 268.428 518.654 249.771 510.172L249.382 509.988C244.261 513.83 239.661 520.19 235.094 531.782Z" fill="#3EC1F3"/>
<path d="M248.888 509.751C233.367 502.053 236.168 485.149 240.689 446.806C239.618 444.937 238.009 443.434 236.072 442.491C234.136 441.549 231.961 441.21 229.829 441.519C227.698 441.828 225.708 442.771 224.119 444.225C222.53 445.679 221.415 447.577 220.918 449.672C220.352 447.327 219.014 445.241 217.119 443.748C215.223 442.256 212.881 441.445 210.469 441.445C208.056 441.445 205.714 442.256 203.819 443.748C201.924 445.241 200.586 447.327 200.02 449.672C199.454 447.327 198.116 445.241 196.22 443.748C194.325 442.256 191.983 441.445 189.571 441.445C187.158 441.445 184.816 442.256 182.921 443.748C181.026 445.241 179.687 447.327 179.122 449.672C178.556 447.327 177.217 445.241 175.322 443.748C173.427 442.256 171.085 441.445 168.672 441.445C166.26 441.445 163.918 442.256 162.023 443.748C160.127 445.241 158.789 447.327 158.223 449.672C157.658 447.327 156.319 445.241 154.424 443.748C152.529 442.256 150.187 441.445 147.774 441.445C145.362 441.445 143.02 442.256 141.124 443.748C139.229 445.241 137.891 447.327 137.325 449.672C136.929 448.023 136.148 446.491 135.046 445.202C133.944 443.913 132.552 442.903 130.984 442.255C129.417 441.608 127.718 441.341 126.027 441.477C124.337 441.612 122.702 442.147 121.258 443.036C121.324 446.43 121.455 449.976 121.666 453.725C122.668 471.473 126.675 495.212 130.115 513.138C146.881 514.034 153.676 526.411 155.818 531.782H184.045C184.302 531.123 184.552 530.51 184.809 529.891L184.967 529.515C185.211 528.942 185.448 528.382 185.692 527.835C185.751 527.69 185.817 527.558 185.877 527.419C186.094 526.932 186.312 526.464 186.536 526.003L186.733 525.587C186.94 525.148 187.144 524.733 187.346 524.342L187.623 523.782L188.243 522.589L188.599 521.93C188.717 521.706 188.842 521.488 188.961 521.271C189.172 520.895 189.389 520.526 189.62 520.163C189.712 520.018 189.798 519.873 189.884 519.728C190.378 518.918 190.872 518.153 191.373 517.435L191.465 517.297C191.749 516.895 192.032 516.506 192.316 516.124C194.038 513.781 196.083 511.696 198.392 509.929C198.919 510.219 199.466 510.495 200.046 510.759C213.774 516.993 220.905 524.408 223.37 531.756H235.094C239.661 520.163 244.261 513.804 249.375 509.955L248.888 509.751Z" fill="#F5EBDD"/>
<path d="M223.324 531.782H223.37C220.905 524.434 213.774 517.02 200.046 510.785C199.466 510.522 198.919 510.245 198.392 509.955C196.159 511.663 194.174 513.672 192.494 515.926L192.375 516.084L192.322 516.15C192.039 516.532 191.755 516.921 191.472 517.323L191.38 517.461C190.879 518.18 190.385 518.944 189.89 519.755C189.805 519.9 189.719 520.045 189.627 520.19C189.416 520.552 189.198 520.921 188.968 521.297C188.849 521.508 188.724 521.725 188.605 521.956L188.249 522.615L187.63 523.808L187.353 524.368C187.151 524.768 186.947 525.183 186.74 525.614L186.542 526.029C186.332 526.49 186.114 526.958 185.883 527.446C185.824 527.584 185.758 527.716 185.699 527.861C185.455 528.408 185.218 528.968 184.974 529.542L184.816 529.917C184.559 530.537 184.308 531.163 184.051 531.809H155.851C153.683 526.438 146.888 514.061 130.148 513.164C133.015 528.131 135.493 539.052 135.493 539.052H224.338C224.494 536.585 224.149 534.112 223.324 531.782Z" fill="#3EC1F3"/>
<path d="M31.9314 305.712V294.508H10.9212C9.16937 304.519 9.58288 314.788 12.1339 324.626H12.9906C18.0095 324.626 22.8231 322.634 26.3745 319.088C29.9258 315.541 31.9244 310.73 31.9314 305.712Z" fill="#A15842"/>
<path d="M219.653 307.998L218.651 307.432C211.639 307.161 203.045 307.84 192.652 310.18L192.487 310.219C191.65 310.404 190.8 310.608 189.936 310.819L189.455 310.938C188.625 311.142 187.788 311.36 186.938 311.597L186.43 311.729C185.501 311.979 184.565 312.249 183.61 312.526L183.32 312.605C182.252 312.921 181.165 313.264 180.064 313.594C141.688 325.621 124.665 355.772 119.544 374.463H130.893C127.505 390.227 120.553 406.953 121.258 443.036C122.702 442.144 124.338 441.607 126.03 441.47C127.723 441.333 129.424 441.6 130.993 442.247C132.562 442.895 133.956 443.906 135.059 445.197C136.162 446.487 136.943 448.021 137.338 449.673C137.904 447.327 139.242 445.241 141.138 443.749C143.033 442.256 145.375 441.445 147.787 441.445C150.2 441.445 152.542 442.256 154.437 443.749C156.333 445.241 157.671 447.327 158.237 449.673C158.802 447.327 160.141 445.241 162.036 443.749C163.931 442.256 166.273 441.445 168.686 441.445C171.098 441.445 173.44 442.256 175.335 443.749C177.231 445.241 178.569 447.327 179.135 449.673C179.701 447.327 181.039 445.241 182.934 443.749C184.829 442.256 187.172 441.445 189.584 441.445C191.996 441.445 194.338 442.256 196.234 443.749C198.129 445.241 199.467 447.327 200.033 449.673C200.599 447.327 201.937 445.241 203.832 443.749C205.728 442.256 208.07 441.445 210.482 441.445C212.894 441.445 215.237 442.256 217.132 443.749C219.027 445.241 220.365 447.327 220.931 449.673C221.428 447.577 222.543 445.679 224.132 444.225C225.721 442.771 227.711 441.828 229.842 441.519C231.974 441.21 234.149 441.549 236.086 442.491C238.022 443.434 239.631 444.937 240.702 446.806C241.777 437.678 242.95 427.338 243.998 415.62C250.034 347.851 254.634 327.974 219.653 307.998Z" fill="#EAA58B"/>
<path d="M224.371 538.57C224.701 529.14 218.031 518.957 200.046 510.785C179.688 501.559 188.743 478.103 194.266 416.233C200.435 347.139 205.107 327.829 167.839 307.438C135.262 289.644 102.073 277.939 102.073 277.939" stroke="#30242A" stroke-width="4" stroke-miterlimit="10" stroke-linecap="round"/>
<path d="M180.064 313.587C139.974 326.181 124.434 355.851 119.518 374.456C124.665 355.779 141.688 325.641 180.064 313.587Z" fill="#A15842"/>
<path d="M157.933 308.058C171.695 301.577 186.777 298.391 201.984 298.752C185.644 290.721 168.887 283.567 151.785 277.32H16.5691C16.5691 277.32 12.8784 283.469 10.9738 294.205C10.9738 294.317 10.9409 294.422 10.9211 294.534H31.9313V305.738C31.9313 308.225 31.4414 310.688 30.4895 312.986C29.5377 315.284 28.1425 317.372 26.3837 319.131C24.6249 320.89 22.5368 322.285 20.2388 323.237C17.9408 324.189 15.4778 324.679 12.9905 324.679H12.1337C19.4952 352.912 44.084 374.483 75.606 374.483H102.482C107.945 354.25 120.124 325.812 157.933 308.058Z" fill="#FFB7D5"/>
<path d="M180.064 313.587C196.323 308.479 208.989 307.062 218.651 307.432L217.557 306.825C212.337 303.972 207.098 301.27 201.984 298.752C186.777 298.391 171.695 301.577 157.933 308.058C120.124 325.812 107.945 354.25 102.482 374.456H119.518C124.434 355.851 139.975 326.181 180.064 313.587Z" fill="#A15842"/>
<path d="M131.802 376.156H146.394" stroke="#A15842" stroke-width="4" stroke-linecap="round" stroke-linejoin="round"/>
<path d="M186.615 241.059V272.403" stroke="#30242A" stroke-width="4" stroke-miterlimit="10" stroke-linecap="round"/>
<path d="M202.471 199.105C202.471 199.105 197.944 208.727 186.615 208.727C175.286 208.727 170.798 199.105 170.798 199.105" stroke="#30242A" stroke-width="4" stroke-linecap="round" stroke-linejoin="round"/>
<path d="M172.894 220.161H200.343V223.028C200.343 226.669 198.896 230.161 196.322 232.735C193.747 235.31 190.256 236.756 186.615 236.756C182.974 236.756 179.482 235.31 176.908 232.735C174.333 230.161 172.887 226.669 172.887 223.028V220.161H172.894Z" fill="#A15842"/>
<path d="M172.498 198.031H200.738C201.144 198.031 201.546 198.111 201.921 198.266C202.296 198.421 202.637 198.649 202.924 198.936C203.211 199.223 203.438 199.564 203.594 199.939C203.749 200.314 203.829 200.716 203.829 201.122V223.233C203.829 227.796 202.016 232.173 198.789 235.4C195.562 238.627 191.185 240.44 186.621 240.44V240.44C184.362 240.44 182.124 239.995 180.036 239.13C177.949 238.266 176.052 236.998 174.454 235.4C172.856 233.802 171.588 231.905 170.724 229.818C169.859 227.73 169.414 225.492 169.414 223.233V201.122C169.414 200.302 169.739 199.516 170.319 198.936C170.899 198.357 171.685 198.031 172.505 198.031H172.498Z" stroke="#30242A" stroke-width="4" stroke-miterlimit="10" stroke-linecap="round"/>
<path d="M186.615 269.332L172.893 277.32H200.343L186.615 269.332Z" fill="#30232A"/>
<path d="M350.057 241.059V272.403" stroke="#30242A" stroke-width="4" stroke-miterlimit="10" stroke-linecap="round"/>
<path d="M365.913 199.105C365.913 199.105 361.386 208.727 350.057 208.727C338.728 208.727 334.24 199.105 334.24 199.105" stroke="#30242A" stroke-width="4" stroke-linecap="round" stroke-linejoin="round"/>
<path d="M336.336 220.161H363.785V223.028C363.785 226.669 362.339 230.161 359.764 232.735C357.19 235.31 353.698 236.756 350.057 236.756C346.416 236.756 342.924 235.31 340.35 232.735C337.776 230.161 336.329 226.669 336.329 223.028V220.161H336.336Z" fill="#FF7235"/>
<path d="M335.94 198.031H364.18C364.586 198.031 364.988 198.111 365.363 198.266C365.738 198.421 366.079 198.649 366.366 198.936C366.653 199.223 366.88 199.564 367.036 199.939C367.191 200.314 367.271 200.716 367.271 201.122V223.233C367.271 227.796 365.458 232.173 362.231 235.4C359.004 238.627 354.627 240.44 350.063 240.44V240.44C345.5 240.44 341.123 238.627 337.896 235.4C334.669 232.173 332.856 227.796 332.856 223.233V201.122C332.856 200.302 333.182 199.516 333.761 198.936C334.341 198.357 335.127 198.031 335.947 198.031H335.94Z" stroke="#30242A" stroke-width="4" stroke-miterlimit="10" stroke-linecap="round"/>
<path d="M350.057 269.332L336.336 277.32H363.785L350.057 269.332Z" fill="#30232A"/>
<path d="M591.411 539.032C604.991 539.032 616 528.023 616 514.443C616 500.863 604.991 489.854 591.411 489.854C577.831 489.854 566.822 500.863 566.822 514.443C566.822 528.023 577.831 539.032 591.411 539.032Z" fill="#FFB7D5"/>
<path d="M12.8784 237.989C12.8784 237.989 41.7708 235.616 54.2333 235.036" stroke="#A15842" stroke-width="4" stroke-miterlimit="10" stroke-linecap="round"/>
<path d="M-21.4315 353.189L-31.3171 314.516H26.3556C39.2029 314.516 51.6852 318.79 61.8358 326.665C71.9863 334.54 79.2282 345.569 82.4203 358.013L89.1161 384.21H18.5526C9.38985 384.212 0.487118 381.164 -6.75231 375.547C-13.9917 369.931 -19.1561 362.065 -21.4315 353.189Z" fill="#3EC1F3"/>
<path d="M498.868 258.267H386.581V269.945H498.868V258.267Z" fill="#F5EBDD"/>
<path d="M271.466 236.756H248.723H225.979V257.041H248.723H271.466H294.21V236.756H271.466Z" fill="#EAA58B"/>
<path d="M271.466 257.041H248.723H225.979V277.32H248.723H271.466H294.21V257.041H271.466Z" fill="#EAA58B"/>
<path d="M271.466 216.471H248.723H225.979V236.756H248.723H271.466H294.21V216.471H271.466Z" fill="#EAA58B"/>
<path d="M271.466 175.907H248.723H225.979V196.192H248.723H271.466H294.21V175.907H271.466Z" fill="#EAA58B"/>
<path d="M271.466 135.343H248.723H225.979V155.621H248.723H271.466H294.21V135.343H271.466Z" fill="#EAA58B"/>
<path d="M271.466 196.192H248.723V216.477H271.466V196.192Z" fill="#EAA58B"/>
<path d="M271.466 155.621H248.723V175.907H271.466V155.621Z" fill="#EAA58B"/>
<path d="M271.466 257.041V236.756" stroke="#A15842" stroke-width="4" stroke-linejoin="round"/>
<path d="M248.723 257.041V236.756" stroke="#A15842" stroke-width="4" stroke-linejoin="round"/>
<path d="M271.466 114.175H248.723H225.979V134.46H248.723H271.466H294.21V114.175H271.466Z" fill="#EAA58B"/>
<path d="M271.466 134.46V114.175" stroke="#A15842" stroke-width="4" stroke-linejoin="round"/>
<path d="M248.723 134.46V114.175" stroke="#A15842" stroke-width="4" stroke-linejoin="round"/>
<path d="M225.979 257.041H248.723H271.466H294.21" stroke="#A15842" stroke-width="4" stroke-linejoin="round"/>
<path d="M225.979 236.756H248.723H271.466H294.21" stroke="#A15842" stroke-width="4" stroke-linejoin="round"/>
<path d="M225.979 135.343H248.723H271.466H294.21" stroke="#A15842" stroke-width="4" stroke-linejoin="round"/>
<path d="M248.723 215.245H256.301H263.887H271.466" stroke="#A15842" stroke-width="4" stroke-linejoin="round"/>
<path d="M248.723 197.418H256.301H263.887H271.466" stroke="#A15842" stroke-width="4" stroke-linejoin="round"/>
<path d="M248.723 174.681H256.301H263.887H271.466" stroke="#A15842" stroke-width="4" stroke-linejoin="round"/>
<path d="M248.723 156.854H256.301H263.887H271.466" stroke="#A15842" stroke-width="4" stroke-linejoin="round"/>
<path d="M355.586 488.147H340.718C340.389 496.28 338.596 501.987 334.346 506.093C332.522 507.798 330.42 509.177 328.131 510.172C326.622 510.832 325.218 511.563 323.9 512.281C328.513 515.26 333.126 521.956 333.126 521.956C336.709 521.231 340.101 519.765 343.084 517.653C349.069 513.632 353.912 507.958 356.265 504.9C356.95 504.015 357.829 503.3 358.835 502.81C359.841 502.32 360.946 502.067 362.065 502.073H366.289C366.614 500.109 366.834 498.129 366.948 496.142C366.915 493.696 365.103 488.147 355.586 488.147Z" fill="#FF7235"/>
<path d="M366.283 502.086H362.058C360.939 502.081 359.834 502.333 358.829 502.823C357.823 503.313 356.943 504.029 356.259 504.913C353.893 507.971 349.049 513.646 343.078 517.666C340.094 519.778 336.702 521.244 333.12 521.969C333.12 521.969 328.506 515.273 323.893 512.295C323.405 512.552 322.937 512.815 322.476 513.079C312.492 518.839 308.254 525.357 306.989 531.802H394.101C395.51 527.155 396.669 522.437 397.574 517.666C398.424 513.283 399.248 508.169 399.94 502.277L366.283 502.086Z" fill="#30242A"/>
<path d="M306.679 539.025H391.412C392.481 536.677 393.378 534.255 394.094 531.776H306.995C306.546 534.165 306.439 536.606 306.679 539.025Z" fill="#FF7235"/>
<path d="M338.062 499.76L355.856 511.622" stroke="#F5EBDD" stroke-width="4" stroke-miterlimit="10" stroke-linecap="round"/>
<path d="M331.472 507.009L345.312 520.19" stroke="#F5EBDD" stroke-width="4" stroke-miterlimit="10" stroke-linecap="round"/>
<path d="M519.042 312.546C514.376 285.637 498.447 269.945 498.447 269.945H456.446C456.446 269.945 391.735 287.674 360.345 306.852C324.097 328.982 327.742 346.552 333.91 415.646C336.112 440.288 338.873 458.827 340.112 472.805H401.864C401.864 472.726 401.864 472.647 401.864 472.568H413.259C413.259 472.568 419.111 445.494 412.639 421.367C405.851 396.073 399.683 391.756 395.985 374.482H466.819C499.653 374.456 524.65 344.891 519.042 312.546Z" fill="#30242A"/>
<path d="M340.718 488.147H355.593C365.077 488.147 366.922 493.677 366.922 496.135C366.807 498.122 366.587 500.102 366.263 502.066L399.913 502.238C400.895 493.98 401.62 484.2 401.844 472.759H340.092C340.619 477.87 340.829 483.01 340.718 488.147Z" fill="#A15842"/>
<path d="M395.399 375.497H380.492" stroke="black" stroke-width="4" stroke-linecap="round" stroke-linejoin="round"/>
<path d="M226.684 474.716L237.888 492.51" stroke="#F5EBDD" stroke-width="4" stroke-miterlimit="10" stroke-linecap="round"/>
<path d="M218.776 478.67L226.026 496.464" stroke="#F5EBDD" stroke-width="4" stroke-miterlimit="10" stroke-linecap="round"/>
<path d="M548.633 353.189L558.518 314.516H500.865C488.018 314.515 475.535 318.788 465.384 326.664C455.233 334.539 447.992 345.568 444.801 358.013L438.098 384.21H508.642C517.806 384.212 526.709 381.165 533.95 375.548C541.19 369.931 546.356 362.065 548.633 353.189Z" fill="#FFB7D5"/>
<path d="M467.715 277.32H57.7458C53.3343 277.32 49.7582 280.896 49.7582 285.308V285.314C49.7582 289.726 53.3343 293.302 57.7458 293.302H467.715C472.127 293.302 475.703 289.726 475.703 285.314V285.308C475.703 280.896 472.127 277.32 467.715 277.32Z" fill="#A15842"/>
<path d="M107.536 240.447C101.836 237.857 87.251 235.53 73.1145 235.53C70.4256 235.53 67.5324 235.576 64.5074 235.662V275.508C71.5065 273.333 77.2731 271.277 81.1021 269.945C81.1021 269.945 109.243 291.443 114.258 281.61C114.258 281.61 121.6 284.576 123.485 277.32C123.485 277.32 132.092 277.32 129.021 271.178C126.952 266.986 117.962 257.654 117.962 257.654C117.962 257.654 128.639 264.093 133.944 260.113C138.88 256.442 114.291 243.518 107.536 240.447Z" fill="#EAA58B"/>
<path d="M11.0331 239.214L-28.9179 241.06C-32.602 260.725 -22.3275 281.011 -4.94862 284.082C17.9135 288.115 45.6658 281.367 64.5077 275.514V235.662C41.4215 236.334 11.0331 239.214 11.0331 239.214Z" fill="#FF7235"/>
<path d="M119.135 256.923C114.298 253.061 107.688 247.868 103.233 244.744" stroke="#A15842" stroke-width="4" stroke-miterlimit="10" stroke-linecap="round"/>
<path d="M95.8584 252.033C107.939 260.442 118.806 271.54 123.966 277.122" stroke="#A15842" stroke-width="4" stroke-miterlimit="10" stroke-linecap="round"/>
<path d="M90.1776 260.719C98.297 266.65 107.596 275.613 113.666 281.729" stroke="#A15842" stroke-width="4" stroke-miterlimit="10" stroke-linecap="round"/>
<path d="M342.939 252.125C329.422 258.887 318.66 270.578 309.137 282.856C304.833 288.385 293.979 302.159 301.143 303.754C306.679 304.98 317.744 293.921 317.744 293.921C317.744 293.921 311.081 308.348 315.899 312.374C319.583 315.452 324.466 310.536 324.466 310.536C328.77 319.762 335.531 311.762 335.531 311.762C346.379 319.762 357.043 290.25 357.043 290.25C363.366 288 369.353 284.895 374.837 281.024C374.837 281.024 378.343 281.933 384.01 283.054L378.896 241.6C365.524 244.071 352.218 247.485 342.939 252.125Z" fill="#A15842"/>
<path d="M315.675 295.76C317.652 290.554 321.138 281.736 324.242 275.784" stroke="#30242A" stroke-width="4" stroke-miterlimit="10" stroke-linecap="round"/>
<path d="M335.565 279.778C330.424 290.857 326.661 302.996 324.565 310.529" stroke="#30242A" stroke-width="4" stroke-miterlimit="10" stroke-linecap="round"/>
<path d="M347.243 283.462C343.354 292.359 339.4 304.4 336.916 312.407" stroke="#30242A" stroke-width="4" stroke-miterlimit="10" stroke-linecap="round"/>
<path d="M461.567 277.32C482.874 259.572 506.514 219.911 508.893 175.907C510.125 153.163 492.298 141.485 478.781 141.485H473.845L430.21 235.53C430.21 235.53 404.342 236.894 378.95 241.587L384.064 283.04C402.392 286.672 443.292 292.55 461.567 277.32Z" fill="#3EC1F3"/>
<path d="M448.867 195.454L430.882 234.212" stroke="#4756DF" stroke-width="4" stroke-linecap="round" stroke-linejoin="round"/>
<path d="M479.736 257.311C483.929 251.468 487.706 245.337 491.039 238.964C493.016 235.194 494.894 231.266 496.628 227.2" stroke="#4756DF" stroke-width="4" stroke-linecap="round" stroke-linejoin="round"/>
<path d="M390.469 238.45C411.882 235.214 423.738 234.825 431.646 234.166C436.919 233.731 444.168 233.507 444.168 233.507" stroke="#4756DF" stroke-width="4" stroke-linecap="round" stroke-linejoin="round"/>
<path d="M399.182 276.094C402.068 276.094 404.408 273.754 404.408 270.868C404.408 267.982 402.068 265.642 399.182 265.642C396.296 265.642 393.956 267.982 393.956 270.868C393.956 273.754 396.296 276.094 399.182 276.094Z" fill="#30242A"/>
<path d="M384.439 284.299C378.943 283.205 375.562 282.322 375.562 282.322C370.078 286.194 364.092 289.298 357.768 291.549C357.768 291.549 357.399 292.577 356.72 294.185" stroke="#30242A" stroke-width="4" stroke-miterlimit="10" stroke-linecap="round"/>
<path d="M300.715 292.728C302.907 289.311 305.279 286.011 307.819 282.843C309.076 281.222 310.356 279.616 311.661 278.025" stroke="#30242A" stroke-width="4" stroke-miterlimit="10" stroke-linecap="round"/>
</svg>
