<svg width="491" height="553" viewBox="0 0 491 553" fill="none" xmlns="http://www.w3.org/2000/svg">
<path d="M274.717 141.698H32.063C21.1634 141.698 12.3274 150.534 12.3274 161.434V404.088C12.3274 414.988 21.1634 423.824 32.063 423.824H274.717C285.617 423.824 294.453 414.988 294.453 404.088V161.434C294.453 150.534 285.617 141.698 274.717 141.698Z" fill="#F5EBDD"/>
<path d="M241.753 133.26C245.514 133.26 248.562 130.211 248.562 126.451C248.562 122.69 245.514 119.641 241.753 119.641C237.992 119.641 234.943 122.69 234.943 126.451C234.943 130.211 237.992 133.26 241.753 133.26Z" fill="#A15842"/>
<path d="M241.753 102.779V124.183" stroke="#A15842" stroke-width="4" stroke-miterlimit="10"/>
<path d="M271.097 109.918H260.735V199.418H271.097V109.918Z" fill="#A15842"/>
<path d="M296.761 36.1229C294.688 40.2208 285.995 54.5262 265.916 54.5262C245.837 54.5262 237.15 40.2208 235.071 36.1229L215.658 109.918H316.18L296.761 36.1229Z" fill="#FFBE21"/>
<path d="M288.384 37.5562L301.437 109.931" stroke="#F5EBDD" stroke-width="4" stroke-miterlimit="10" stroke-linecap="round"/>
<path d="M243.455 38.4982L230.57 109.931" stroke="#F5EBDD" stroke-width="4" stroke-miterlimit="10" stroke-linecap="round"/>
<path d="M257.451 38.0339L252.459 109.904" stroke="#F5EBDD" stroke-width="4" stroke-miterlimit="10" stroke-linecap="round"/>
<path d="M274.381 38.0339L279.387 110.046" stroke="#F5EBDD" stroke-width="4" stroke-miterlimit="10" stroke-linecap="round"/>
<path d="M265.943 54.5196C286.029 54.5196 294.716 40.2141 296.788 36.1163V35.975H235.112L235.071 36.1163C237.151 40.2209 245.838 54.5196 265.943 54.5196Z" fill="#FF7235"/>
<path d="M660.608 3.54871H417.954C407.054 3.54871 398.218 12.3846 398.218 23.2843V265.939C398.218 276.838 407.054 285.674 417.954 285.674H660.608C671.508 285.674 680.344 276.838 680.344 265.939V23.2843C680.344 12.3846 671.508 3.54871 660.608 3.54871Z" fill="#F5EBDD"/>
<path d="M265.586 550.285C263.714 550.286 261.907 549.603 260.504 548.363C259.101 547.124 258.199 545.414 257.969 543.556L252.29 495.842H278.883L273.203 543.556C272.975 545.415 272.074 547.125 270.671 548.365C269.267 549.605 267.459 550.288 265.586 550.285Z" fill="#30242A"/>
<path d="M109.559 298.648H228.935V496.475H55.1295V353.07C55.1313 338.636 60.8666 324.793 71.0739 314.587C81.2812 304.381 95.1245 298.648 109.559 298.648Z" fill="#FFB7D5"/>
<path d="M243.159 199.418H654.451C668.887 199.418 682.731 205.152 692.939 215.36C703.146 225.567 708.881 239.412 708.881 253.847V496.455H188.743V253.84C188.743 239.405 194.478 225.561 204.685 215.353C214.893 205.146 228.737 199.411 243.173 199.411L243.159 199.418Z" fill="#FFB7D5"/>
<path d="M188.73 327.797V496.455" stroke="#A15842" stroke-width="4" stroke-miterlimit="10" stroke-linecap="round"/>
<path d="M243.159 377.772H654.451C668.887 377.772 682.731 383.506 692.939 393.714C703.146 403.921 708.881 417.766 708.881 432.201V496.461H188.743V432.201C188.743 417.768 194.476 403.926 204.681 393.718C214.885 383.511 228.726 377.775 243.159 377.772Z" fill="#FFB7D5"/>
<path d="M494.615 377.772H241.194C227.275 377.772 213.925 383.301 204.082 393.144C194.239 402.987 188.71 416.337 188.71 430.256V496.481" stroke="#A15842" stroke-width="4" stroke-miterlimit="10" stroke-linecap="round"/>
<path d="M152.414 276.571C167.978 278.515 172.83 271.907 175.111 266.195C177.701 259.715 176.033 254.143 174.014 246.903C174.014 246.903 179.155 244.104 178.354 240.894C177.681 238.304 171.834 238.014 171.834 238.014C171.605 236.857 171.401 235.657 171.221 234.414C169.923 225.331 167.978 220.143 167.978 220.143C163.436 221.441 157.602 220.816 155.658 220.143C153.031 227.421 148.288 233.748 142.039 238.31C142.039 238.31 127.767 222.747 118.69 234.421C111.288 243.942 121.933 255.819 129.065 257.118C124.826 266.06 113.421 271.248 107.486 273.415C107.849 276.227 108.193 278.838 108.495 281.112H152.906L152.414 276.571Z" fill="#EAA58B"/>
<path d="M306.874 333.039C309.218 324.704 311.131 316.255 312.607 307.725L297.044 265.569C297.044 265.569 303.53 248.074 297.716 245.463C291.903 242.852 278.882 259.748 273.695 273.354C271.454 279.235 265.331 292.753 259.107 306.204L306.874 333.039Z" fill="#EAA58B"/>
<path d="M242.56 341.45C242.56 341.45 204.946 309.669 188.663 297.988C172.379 286.307 153.713 288.272 153.713 288.272L152.899 281.133H108.489C109.162 286.199 109.599 289.564 109.599 289.564L76.5336 407.607L175.104 399.822L172.513 363.486C172.513 363.486 225.671 407.897 256.179 403.698C283.694 399.889 299.325 360.162 306.868 333.045L259.093 306.211C250.931 323.881 242.56 341.45 242.56 341.45Z" fill="#3EC1F3"/>
<path d="M129.066 257.137C121.933 255.839 111.282 243.962 118.69 234.441C127.767 222.767 142.039 238.33 142.039 238.33C148.289 233.768 153.031 227.441 155.658 220.163C157.603 220.835 163.437 221.461 167.979 220.163C167.979 220.163 177.709 216.919 177.056 209.141C176.188 198.698 160.193 203.3 160.193 203.3C160.193 203.3 142.699 190.327 123.858 198.758C103.779 207.795 101.828 226.01 103.106 238.33C103.846 245.402 105.872 261.208 107.466 273.435C113.421 271.261 124.827 266.08 129.066 257.137Z" fill="#30242A"/>
<path d="M309.452 315.833C306.484 317.058 303.88 317.414 302.723 316.748C299.816 315.093 299.359 311.627 302.81 306.756C302.81 306.756 294.608 309.952 292.078 305.794C289.548 301.635 293.35 297.807 293.35 297.807C293.35 297.807 287.543 299.408 286.123 294.24C284.703 289.073 289.487 286.368 289.487 286.368C289.487 286.368 286.217 285.15 286.123 281.738C285.995 276.779 294.076 272.755 296.405 271.699" stroke="#A15842" stroke-width="8" stroke-miterlimit="10" stroke-linecap="round"/>
<path d="M173.947 363.345L171.545 335.293" stroke="#4756DF" stroke-width="4" stroke-miterlimit="10" stroke-linecap="round"/>
<path d="M151.802 277.768C148.039 276.917 144.415 275.54 141.036 273.677" stroke="#A15842" stroke-width="4" stroke-miterlimit="10" stroke-linecap="round"/>
<path d="M80.7457 398.846L97.46 354.403" stroke="#4756DF" stroke-width="4" stroke-miterlimit="10" stroke-linecap="round"/>
<path d="M168.725 253.551C167.655 254.224 163.631 254.735 161.996 251.647" stroke="#A15842" stroke-width="4" stroke-miterlimit="10" stroke-linecap="round"/>
<path d="M162.79 238.977C163.864 238.977 164.735 238.106 164.735 237.032C164.735 235.958 163.864 235.087 162.79 235.087C161.716 235.087 160.846 235.958 160.846 237.032C160.846 238.106 161.716 238.977 162.79 238.977Z" fill="#A15842"/>
<path d="M127.121 242.872L134.254 246.762" stroke="#A15842" stroke-width="4" stroke-miterlimit="10" stroke-linecap="round"/>
<path d="M309.075 523.881L358.754 509.179C354.965 496.085 347.718 471.262 343.055 456.802L281.063 482.681C289.175 497.208 298.548 510.995 309.075 523.881Z" fill="#EAA58B"/>
<path d="M310.017 524.991C308.563 530.511 307.661 536.162 307.325 541.861H395.21C393.524 537.803 390.531 534.426 386.705 532.265L361.25 517.852C361.25 517.852 360.281 514.488 358.754 509.172L309.075 523.881C309.68 524.608 310.017 524.991 310.017 524.991Z" fill="#FFBE21"/>
<path d="M307.42 550.285H396.913L396.637 547.513C396.444 545.568 395.96 543.663 395.204 541.861H307.319C307.126 544.667 307.159 547.484 307.42 550.285Z" fill="#FF7235"/>
<path d="M263.319 441.332C267.612 456.136 274.186 470.34 281.063 482.681L343.055 456.802C342.383 454.628 341.71 452.69 341.145 451.055C321.745 394.998 310.017 349.915 281.48 345.346C236.565 338.2 160.16 415.554 148.687 427.437L165.213 437.456L217.173 461.862L236.101 466.229L263.319 441.332Z" fill="#A15842"/>
<path d="M261.906 440.754C260.435 433.581 259.713 426.274 259.753 418.952" stroke="#30242A" stroke-width="4" stroke-miterlimit="10" stroke-linecap="round"/>
<path d="M502.636 287.619C502.636 287.619 440.482 304.017 413.143 319.399C382.009 336.894 380.064 360.257 360.611 419.275C354.347 438.27 349.919 453.531 345.808 465.522L399.396 490.822L399.497 490.621C399.497 490.621 425.739 486.765 428.034 454.285C429.763 430.061 430.591 412.089 439.056 393.968L583.685 287.606L502.636 287.619Z" fill="#30242A"/>
<path d="M316.914 501.151C298.174 503.991 290.355 507.638 287.307 516.136L322.707 532.615C322.707 532.615 341.689 527.232 351.91 529.863V529.897C358.757 531.503 365.441 533.74 371.875 536.578C382.422 522.183 391.655 506.869 399.463 490.823L345.875 465.522C338.19 487.963 331.785 498.897 316.914 501.151Z" fill="#4856DF"/>
<path d="M343.385 542.251L360.651 550.285C364.639 545.935 368.373 541.358 371.834 536.578C365.4 533.74 358.717 531.503 351.87 529.897L343.385 542.251Z" fill="#30242A"/>
<path d="M334.523 487.169L346.541 492.424" stroke="#F5EBDD" stroke-width="4" stroke-miterlimit="10" stroke-linecap="round"/>
<path d="M327.693 495.506L339.711 500.768" stroke="#F5EBDD" stroke-width="4" stroke-miterlimit="10" stroke-linecap="round"/>
<path d="M455.292 212.391C455.292 212.391 421.291 165.962 413.136 156.609C404.052 146.233 391.732 135.212 387.842 139.114C383.953 143.017 394.975 155.977 394.975 155.977L393.03 198.133C393.03 198.133 415.37 258.376 439.728 266.235C451.907 270.165 475.041 259.802 491.385 251.028L466.105 205.272C459.679 209.484 455.292 212.391 455.292 212.391Z" fill="#A15842"/>
<path d="M638.188 216.926C638.188 216.926 635.59 202.661 632.347 194.876C627.496 183.222 619.488 173.344 602.794 170.208C598.905 179.433 583.583 210.345 553.223 209.794C529.389 209.363 522.64 187.218 520.783 172.563C518.795 173.171 516.848 173.908 514.956 174.77C508.113 177.966 481.366 195.286 466.105 205.272L491.358 251.001C501.983 245.302 509.741 240.235 509.741 240.235L502.609 287.579H592.775L598.898 285.183L641.29 256.424C641.235 243.2 640.198 229.997 638.188 216.926Z" fill="#FF7235"/>
<path d="M399.174 206.887C400.229 206.878 401.254 206.534 402.101 205.905C404.395 203.61 403.931 200.252 399.45 196.592C399.45 196.592 407.941 197.473 409.233 192.931C410.525 188.39 405.997 185.799 405.997 185.799C405.997 185.799 411.831 185.799 411.831 180.611C411.831 175.423 406.643 174.124 406.643 174.124C406.643 174.124 409.388 172.139 408.587 168.936C407.289 163.749 396.267 162.45 396.267 162.45L394.746 160.593" stroke="#30242A" stroke-width="8" stroke-linecap="round" stroke-linejoin="round"/>
<path d="M456.907 212.243L463.723 221.468" stroke="#30242A" stroke-width="4" stroke-miterlimit="10" stroke-linecap="round"/>
<path d="M550.633 288.272C550.633 288.272 494.851 305.767 463.723 320.698C432.771 335.501 436.485 369.986 442.319 430.304C444.385 451.627 446.8 468.321 448.025 481.543H507.239C510.28 479.848 528.233 468.321 517.527 436.79C509.708 413.771 502.959 398.523 502.959 378.525H552.483C566.571 378.526 580.104 373.034 590.207 363.216C600.31 353.398 606.187 340.028 606.59 325.946L607.673 288.265L550.633 288.272Z" fill="#30242A"/>
<path d="M436.734 524.191C420.961 534.701 415.423 541.309 416.244 550.305L455.271 550.251C455.271 550.251 470.189 537.339 480.565 535.394C487.441 534.088 494.425 533.437 501.424 533.45C503.8 521.815 506.357 504.354 506.807 481.786L507.238 481.564H448.025C450.09 503.755 448.778 516.15 436.734 524.191Z" fill="#4856DF"/>
<path d="M478.123 550.191H497.172C497.172 550.191 499.245 544.397 501.479 533.456C494.48 533.443 487.495 534.094 480.619 535.401L478.123 550.191Z" fill="#30242A"/>
<path d="M502.36 379.716H487.072" stroke="black" stroke-width="4" stroke-linecap="round" stroke-linejoin="round"/>
<path d="M446.834 507.16H461.456" stroke="#F5EBDD" stroke-width="4" stroke-miterlimit="10" stroke-linecap="round"/>
<path d="M443.584 517.536H458.205" stroke="#F5EBDD" stroke-width="4" stroke-miterlimit="10" stroke-linecap="round"/>
<path d="M246.134 404.357C262.072 404.357 274.993 391.436 274.993 375.497C274.993 359.558 262.072 346.637 246.134 346.637C230.195 346.637 217.274 359.558 217.274 375.497C217.274 391.436 230.195 404.357 246.134 404.357Z" fill="white"/>
<path d="M254.242 366.743C254.242 362.265 250.611 358.635 246.133 358.635C241.655 358.635 238.025 362.265 238.025 366.743V376.466C238.025 380.944 241.655 384.575 246.133 384.575C250.611 384.575 254.242 380.944 254.242 376.466V366.743Z" fill="#4856DF"/>
<path d="M246.133 381.984V391.068" stroke="#4856DF" stroke-width="4" stroke-miterlimit="10" stroke-linecap="round"/>
<path d="M241.484 391.068H250.777" stroke="#4856DF" stroke-width="4" stroke-miterlimit="10" stroke-linecap="round"/>
<path d="M42.4792 182.549C48.388 182.549 53.178 177.759 53.178 171.85C53.178 165.941 48.388 161.151 42.4792 161.151C36.5704 161.151 31.7804 165.941 31.7804 171.85C31.7804 177.759 36.5704 182.549 42.4792 182.549Z" fill="white"/>
<path d="M74.9122 182.549C80.821 182.549 85.611 177.759 85.611 171.85C85.611 165.941 80.821 161.151 74.9122 161.151C69.0034 161.151 64.2134 165.941 64.2134 171.85C64.2134 177.759 69.0034 182.549 74.9122 182.549Z" fill="white"/>
<path d="M107.338 182.549C113.247 182.549 118.037 177.759 118.037 171.85C118.037 165.941 113.247 161.151 107.338 161.151C101.429 161.151 96.6392 165.941 96.6392 171.85C96.6392 177.759 101.429 182.549 107.338 182.549Z" fill="white"/>
<path d="M274.69 141.698C279.923 141.698 284.941 143.777 288.641 147.477C292.341 151.176 294.419 156.195 294.419 161.427V404.088C294.419 409.321 292.341 414.339 288.641 418.039C284.941 421.739 279.923 423.817 274.69 423.817H32.0562C26.8238 423.817 21.8056 421.739 18.1058 418.039C14.4059 414.339 12.3273 409.321 12.3273 404.088V161.427C12.3273 156.195 14.4059 151.176 18.1058 147.477C21.8056 143.777 26.8238 141.698 32.0562 141.698H274.69ZM274.69 139.007H32.0562C26.1121 139.014 20.4135 141.378 16.2104 145.581C12.0073 149.784 9.6429 155.483 9.63577 161.427V404.088C9.6429 410.032 12.0073 415.731 16.2104 419.934C20.4135 424.137 26.1121 426.501 32.0562 426.509H274.69C280.635 426.501 286.333 424.137 290.536 419.934C294.739 415.731 297.104 410.032 297.111 404.088V161.427C297.104 155.483 294.739 149.784 290.536 145.581C286.333 141.378 280.635 139.014 274.69 139.007Z" fill="#F5EBDD"/>
<path d="M428.377 44.4061C434.286 44.4061 439.076 39.616 439.076 33.7072C439.076 27.7985 434.286 23.0084 428.377 23.0084C422.468 23.0084 417.678 27.7985 417.678 33.7072C417.678 39.616 422.468 44.4061 428.377 44.4061Z" fill="white"/>
<path d="M460.803 44.4061C466.712 44.4061 471.502 39.616 471.502 33.7072C471.502 27.7985 466.712 23.0084 460.803 23.0084C454.894 23.0084 450.104 27.7985 450.104 33.7072C450.104 39.616 454.894 44.4061 460.803 44.4061Z" fill="white"/>
<path d="M493.229 44.4061C499.138 44.4061 503.928 39.616 503.928 33.7072C503.928 27.7985 499.138 23.0084 493.229 23.0084C487.32 23.0084 482.53 27.7985 482.53 33.7072C482.53 39.616 487.32 44.4061 493.229 44.4061Z" fill="white"/>
<path d="M660.608 3.54883C665.843 3.54883 670.862 5.62811 674.564 9.32925C678.265 13.0304 680.344 18.0502 680.344 23.2844V265.946C680.342 271.179 678.262 276.197 674.561 279.897C670.86 283.596 665.841 285.675 660.608 285.675H417.954C412.721 285.675 407.702 283.596 404.001 279.897C400.3 276.197 398.22 271.179 398.218 265.946V23.2844C398.218 20.6927 398.729 18.1264 399.721 15.7319C400.712 13.3375 402.166 11.1619 403.999 9.32925C405.831 7.49663 408.007 6.04292 410.401 5.05111C412.796 4.05931 415.362 3.54883 417.954 3.54883H660.608ZM660.608 0.8573H417.954C412.008 0.864423 406.308 3.22956 402.103 7.43392C397.899 11.6383 395.534 17.3386 395.527 23.2844V265.946C395.534 271.891 397.899 277.591 402.104 281.794C406.308 285.997 412.009 288.361 417.954 288.366H660.608C666.554 288.361 672.254 285.997 676.458 281.794C680.663 277.591 683.028 271.891 683.036 265.946V23.2844C683.028 17.3386 680.663 11.6383 676.459 7.43392C672.255 3.22956 666.554 0.864423 660.608 0.8573Z" fill="#F5EBDD"/>
<path d="M395.621 155.963C395.621 155.963 381.355 155.963 379.411 161.797C377.466 167.631 382.001 172.18 382.001 172.18C382.001 172.18 374.223 176.069 379.411 183.201C379.411 183.201 375.515 189.688 382.001 193.577C382.001 193.577 378.112 198.119 384.599 202.661C391.085 207.203 400.163 207.849 402.094 205.905C404.388 203.61 403.924 200.252 399.443 196.592C399.443 196.592 407.934 197.473 409.226 192.931C410.518 188.389 405.99 185.799 405.99 185.799C405.99 185.799 411.824 185.799 411.824 180.611C411.824 175.423 406.636 174.124 406.636 174.124C406.636 174.124 409.381 172.139 408.58 168.936C407.625 165.121 401.421 163.412 398.198 162.773C397.341 162.615 396.476 162.507 395.607 162.45L395.621 155.963Z" fill="#A15842"/>
<path d="M382.749 194.122C389.192 196.07 395.827 197.318 402.538 197.843" stroke="#30242A" stroke-width="4" stroke-miterlimit="10" stroke-linecap="round"/>
<path d="M380.333 183.713C389.721 186.036 399.388 187.03 409.052 186.667" stroke="#30242A" stroke-width="4" stroke-miterlimit="10" stroke-linecap="round"/>
<path d="M382.385 172.947C391.284 175.084 400.485 175.671 409.583 174.683" stroke="#30242A" stroke-width="4" stroke-miterlimit="10" stroke-linecap="round"/>
<path d="M590.837 279.215C590.837 279.215 538.306 292.841 520.145 306.46C511.942 312.61 501.977 323.955 498.747 329.156C495.517 334.357 481.885 353.804 488.371 354.45C494.858 355.096 501.99 343.428 501.99 343.428C501.99 343.428 498.087 357.693 498.76 362.235C499.433 366.777 505.893 365.478 505.893 365.478C511.081 370.666 515.623 364.18 515.623 364.18C524.7 370.013 534.463 338.886 534.463 338.886C539.79 336.26 544.707 332.874 549.058 328.833C549.058 328.833 607.101 328.51 625.262 312.294C638.154 300.787 641.337 278.091 641.33 256.492H590.864L590.837 279.215Z" fill="#A15842"/>
<path d="M510.522 301.918C494.716 307.543 477.073 314.299 463.723 320.698C439.796 332.137 436.586 355.358 439.055 393.154" stroke="black" stroke-width="4" stroke-linecap="round" stroke-linejoin="round"/>
<path d="M130.404 488.05C103.873 493.433 84.9647 500.351 84.9647 500.351L59.4356 489.039L59.4894 488.481L0 542.507L1.29866 544.061C2.92251 546.009 4.95455 547.576 7.251 548.651C9.54746 549.727 12.0522 550.285 14.5881 550.285H133.991L130.404 488.05Z" fill="#EAA58B"/>
<path d="M84.9378 500.351C84.9378 500.351 103.846 493.4 130.378 488.05L133.964 550.285H219.184C242.224 550.285 262.417 534.136 266.71 511.5C269.57 496.394 265.102 480.218 249.047 469.216C223.222 451.52 167.978 428.359 153.713 423.817L75.2349 441.985C60.3171 458.201 63.5604 484.787 63.5604 484.787L84.9378 500.351Z" fill="#A15842"/>
<path d="M130.6 488.891C148.243 485.48 167.952 482.526 195.54 483.811" stroke="#30242A" stroke-width="4" stroke-miterlimit="10" stroke-linecap="round"/>
<path d="M155.059 423.144C167.541 427.121 211.399 445.349 239.465 461.7" stroke="#30242A" stroke-width="4" stroke-miterlimit="10" stroke-linecap="round"/>
<path d="M72.1532 488.952L6.6886 548.361C9.13668 549.626 11.8526 550.286 14.6084 550.285H62.2619L84.938 500.351C81.3865 495.823 77.0574 491.963 72.1532 488.952Z" fill="#FFBE21"/>
<path d="M63.5604 484.78L0 542.507L1.29866 544.061C2.78529 545.842 4.61623 547.304 6.68171 548.361L72.1531 488.952C69.4517 487.248 66.5699 485.849 63.5604 484.78Z" fill="#FF7235"/>
<path d="M48.9659 538.94V550.433" stroke="#30242A" stroke-width="4" stroke-miterlimit="10" stroke-linecap="round"/>
<path d="M38.59 538.94V550.433" stroke="#30242A" stroke-width="4" stroke-miterlimit="10" stroke-linecap="round"/>
<path d="M109.868 288.474C111.887 288.285 116.099 287.942 120.311 287.942" stroke="#4756DF" stroke-width="4" stroke-miterlimit="10" stroke-linecap="round"/>
<path d="M297.044 265.569C297.044 265.569 309.694 261.377 313.193 266.652C316.692 271.928 313.448 277.687 313.448 277.687C313.448 277.687 322.256 279.43 319.047 287.949C319.047 287.949 324.692 293.332 319.309 298.984C319.309 298.984 324.423 302.436 319.208 308.727C313.993 315.019 305.145 318.148 302.676 316.748C299.769 315.093 299.311 311.628 302.763 306.756C302.763 306.756 294.561 309.952 292.031 305.794C289.501 301.635 293.302 297.807 293.302 297.807C293.302 297.807 287.495 299.408 286.076 294.24C284.656 289.073 289.44 286.368 289.44 286.368C289.44 286.368 286.17 285.15 286.076 281.738C285.948 276.779 294.648 272.459 296.976 271.409L297.044 265.569Z" fill="#EAA58B"/>
<path d="M287.475 287.276C292.468 286.401 305.152 283.696 313.55 277.856" stroke="#A15842" stroke-width="4" stroke-miterlimit="10" stroke-linecap="round"/>
<path d="M289.494 299.395C300.038 298.074 310.153 294.414 319.101 288.682" stroke="#A15842" stroke-width="4" stroke-miterlimit="10" stroke-linecap="round"/>
<path d="M298.914 309.266C300.711 308.633 312.433 304.428 319.545 299.919" stroke="#A15842" stroke-width="4" stroke-miterlimit="10" stroke-linecap="round"/>
<path d="M119.369 392.306C107.627 393.739 94.5263 395.859 79.7768 398.496L100.528 342.721L109.606 289.564C109.606 289.564 79.7768 292.807 66.1577 308.404C53.595 322.757 14.2718 389.473 29.8221 424.497C45.3724 459.52 92.0972 447.166 103.106 443.923C109.114 442.153 118.218 438.075 127.565 435.041L119.369 392.306Z" fill="#3EC1F3"/>
<path d="M149.818 431.602C164.089 433.547 180.299 440.679 182.896 431.602C182.896 431.602 191.644 431.38 188.885 423.063C188.885 423.063 193.272 422.518 193.918 419.275C195.217 412.795 179.653 406.955 179.653 406.955C179.653 406.955 191.974 408.899 194.571 406.282C197.875 402.971 194.658 397.703 174.533 392.824C159.918 389.285 142.234 389.5 119.356 392.299L127.572 435.007C135.404 432.517 143.331 430.714 149.818 431.602Z" fill="#EAA58B"/>
<path d="M185.197 407.782C178.287 405.131 165.166 400.724 155.658 399.176" stroke="#A15842" stroke-width="4" stroke-miterlimit="10" stroke-linecap="round"/>
<path d="M189.154 422.794C180.137 418.757 162.723 411.274 153.383 409.875" stroke="#A15842" stroke-width="4" stroke-miterlimit="10" stroke-linecap="round"/>
<path d="M182.163 432.275C175.212 428.749 161.303 422.128 151.439 420.251" stroke="#A15842" stroke-width="4" stroke-miterlimit="10" stroke-linecap="round"/>
<path d="M119.484 393.275C113.145 394.096 92.8715 396.895 62.5851 402.742" stroke="#4756DF" stroke-width="4" stroke-miterlimit="10" stroke-linecap="round"/>
<line opacity="0.2" x1="160.819" y1="91.0281" x2="594.827" y2="91.0281" stroke="black" stroke-dasharray="5 5"/>
</svg>
